<svg xmlns="http://www.w3.org/2000/svg" width="1200" height="760" viewBox="0 0 1200 760">
  <defs>
    <style>
      .bg { fill: #fcfcf8; }
      .wire { stroke: #1f2937; stroke-width: 3; fill: none; stroke-linecap: round; stroke-linejoin: round; }
      .sym { stroke: #1f2937; stroke-width: 3; fill: none; stroke-linecap: round; }
      .gate { stroke: #1f2937; stroke-width: 3; fill: none; }
      .node { fill: #1f2937; }
      .bubble { fill: #fcfcf8; stroke: #1f2937; stroke-width: 2.5; }
      .title { font: 700 30px "DejaVu Sans", sans-serif; fill: #111827; }
      .lbl { font: 600 20px "DejaVu Sans", sans-serif; fill: #111827; }
      .txt { font: 500 18px "DejaVu Sans", sans-serif; fill: #111827; }
      .small { font: 500 16px "DejaVu Sans", sans-serif; fill: #374151; }
    </style>
    <marker id="arrow" markerWidth="10" markerHeight="10" refX="8" refY="5" orient="auto">
      <path d="M0,0 L10,5 L0,10 z" fill="#1f2937" />
    </marker>
  </defs>

  <rect class="bg" x="0" y="0" width="1200" height="760" />
  <text class="title" x="42" y="56">Two-Stage Miller OTA (PMOS Differential Pair, Standard MOS Symbols)</text>

  <line class="wire" x1="70" y1="90" x2="1130" y2="90" />
  <text class="lbl" x="76" y="78">VDD</text>

  <line class="wire" x1="120" y1="610" x2="1020" y2="610" />
  <circle class="node" cx="130" cy="610" r="5" />
  <line class="wire" x1="130" y1="610" x2="130" y2="690" />
  <line class="wire" x1="100" y1="690" x2="160" y2="690" />
  <line class="wire" x1="108" y1="702" x2="152" y2="702" />
  <line class="wire" x1="116" y1="714" x2="144" y2="714" />
  <text class="lbl" x="76" y="736">VSS / GND</text>

  <line class="wire" x1="395" y1="90" x2="395" y2="118" />
  <circle cx="395" cy="142" r="24" class="sym" />
  <path class="wire" d="M395 130 L395 154" marker-end="url(#arrow)" />
  <line class="wire" x1="395" y1="166" x2="395" y2="190" />
  <text class="txt" x="360" y="150">IBIAS</text>

  <line class="wire" x1="300" y1="190" x2="490" y2="190" />
  <circle class="node" cx="395" cy="190" r="5" />
  <text class="small" x="330" y="178">Common PMOS source node</text>

  <line class="sym" x1="300" y1="230" x2="300" y2="300" />
  <line class="wire" x1="300" y1="190" x2="300" y2="230" />
  <line class="wire" x1="300" y1="300" x2="300" y2="340" />
  <line class="gate" x1="250" y1="236" x2="250" y2="294" />
  <line class="wire" x1="250" y1="265" x2="286" y2="265" />
  <circle class="bubble" cx="292" cy="265" r="6" />
  <line class="wire" x1="250" y1="265" x2="185" y2="265" />
  <circle class="node" cx="185" cy="265" r="4" />
  <text class="txt" x="112" y="271">VIN+</text>
  <text class="lbl" x="276" y="328">M1</text>

  <line class="sym" x1="490" y1="230" x2="490" y2="300" />
  <line class="wire" x1="490" y1="190" x2="490" y2="230" />
  <line class="wire" x1="490" y1="300" x2="490" y2="340" />
  <line class="gate" x1="540" y1="236" x2="540" y2="294" />
  <line class="wire" x1="540" y1="265" x2="504" y2="265" />
  <circle class="bubble" cx="498" cy="265" r="6" />
  <line class="wire" x1="540" y1="265" x2="605" y2="265" />
  <circle class="node" cx="605" cy="265" r="4" />
  <text class="txt" x="612" y="271">VIN-</text>
  <text class="lbl" x="466" y="328">M2</text>

  <text class="small" x="270" y="360">PMOS differential pair</text>

  <line class="sym" x1="300" y1="420" x2="300" y2="490" />
  <line class="wire" x1="300" y1="340" x2="300" y2="420" />
  <line class="wire" x1="300" y1="490" x2="300" y2="610" />
  <line class="gate" x1="250" y1="426" x2="250" y2="484" />
  <line class="wire" x1="250" y1="455" x2="286" y2="455" />
  <line class="wire" x1="250" y1="455" x2="250" y2="340" />
  <line class="wire" x1="250" y1="340" x2="300" y2="340" />
  <text class="lbl" x="276" y="518">M3</text>

  <line class="sym" x1="490" y1="420" x2="490" y2="490" />
  <line class="wire" x1="490" y1="340" x2="490" y2="420" />
  <line class="wire" x1="490" y1="490" x2="490" y2="610" />
  <line class="gate" x1="440" y1="426" x2="440" y2="484" />
  <line class="wire" x1="440" y1="455" x2="476" y2="455" />
  <line class="wire" x1="300" y1="340" x2="420" y2="340" />
  <line class="wire" x1="420" y1="340" x2="420" y2="455" />
  <line class="wire" x1="420" y1="455" x2="440" y2="455" />
  <text class="lbl" x="466" y="518">M4</text>

  <circle class="node" cx="490" cy="340" r="5" />
  <text class="lbl" x="510" y="346">V1</text>
  <text class="small" x="324" y="548">NMOS mirror load / first gain stage</text>

  <line class="wire" x1="490" y1="340" x2="730" y2="340" />
  <line class="wire" x1="730" y1="340" x2="730" y2="425" />
  <line class="wire" x1="730" y1="425" x2="770" y2="425" />

  <line class="sym" x1="820" y1="390" x2="820" y2="460" />
  <line class="wire" x1="820" y1="320" x2="820" y2="390" />
  <line class="wire" x1="820" y1="460" x2="820" y2="610" />
  <line class="gate" x1="770" y1="396" x2="770" y2="454" />
  <line class="wire" x1="770" y1="425" x2="806" y2="425" />
  <text class="lbl" x="796" y="488">M5</text>

  <line class="sym" x1="820" y1="170" x2="820" y2="240" />
  <line class="wire" x1="820" y1="90" x2="820" y2="170" />
  <line class="wire" x1="820" y1="240" x2="820" y2="320" />
  <line class="gate" x1="870" y1="176" x2="870" y2="234" />
  <line class="wire" x1="870" y1="205" x2="834" y2="205" />
  <circle class="bubble" cx="828" cy="205" r="6" />
  <line class="wire" x1="870" y1="205" x2="930" y2="205" />
  <circle class="node" cx="930" cy="205" r="4" />
  <text class="small" x="938" y="211">VBP</text>
  <text class="lbl" x="796" y="268">M6</text>

  <circle class="node" cx="820" cy="320" r="5" />
  <line class="wire" x1="820" y1="320" x2="1070" y2="320" />
  <circle class="node" cx="1070" cy="320" r="5" />
  <text class="lbl" x="1078" y="326">VOUT</text>
  <text class="small" x="740" y="548">Second gain stage</text>

  <line class="wire" x1="640" y1="230" x2="640" y2="270" />
  <line class="wire" x1="656" y1="230" x2="656" y2="270" />
  <line class="wire" x1="490" y1="340" x2="640" y2="250" />
  <line class="wire" x1="656" y1="250" x2="820" y2="320" />
  <text class="small" x="618" y="220">Cc</text>
  <text class="small" x="574" y="196">Miller compensation capacitor</text>

  <text class="txt" x="658" y="684">All transistors drawn using standard NMOS/PMOS symbols</text>
</svg>
